<svg width="18" height="18" viewBox="0 0 18 18" fill="none" xmlns="http://www.w3.org/2000/svg">
<path d="M6.33333 16.3333C7.06971 16.3333 7.66667 15.7363 7.66667 15C7.66667 14.2636 7.06971 13.6666 6.33333 13.6666C5.59695 13.6666 5 14.2636 5 15C5 15.7363 5.59695 16.3333 6.33333 16.3333Z" stroke="white" stroke-width="1.8" stroke-linecap="round" stroke-linejoin="round"/>
<path d="M14.3333 16.3333C15.0697 16.3333 15.6667 15.7363 15.6667 15C15.6667 14.2636 15.0697 13.6666 14.3333 13.6666C13.597 13.6666 13 14.2636 13 15C13 15.7363 13.597 16.3333 14.3333 16.3333Z" stroke="white" stroke-width="1.8" stroke-linecap="round" stroke-linejoin="round"/>
<path d="M4.77996 4.99996H16.3333L15.2133 10.5933C15.1523 10.9002 14.9854 11.1759 14.7416 11.3722C14.4978 11.5684 14.1928 11.6726 13.88 11.6666H6.83329C6.50775 11.6694 6.19244 11.5529 5.94683 11.3393C5.70122 11.1256 5.54227 10.8294 5.49996 10.5066L4.48663 2.82663C4.4446 2.50612 4.28758 2.21179 4.04476 1.9984C3.80194 1.78502 3.48988 1.66712 3.16663 1.66663H1.66663" stroke="white" stroke-width="1.8" stroke-linecap="round" stroke-linejoin="round"/>
</svg>
