<svg width="20" height="20" viewBox="0 0 20 20" fill="none" xmlns="http://www.w3.org/2000/svg">
<path d="M2.5 5H4.16667H17.5" stroke="#B6B6B6" stroke-width="1.2" stroke-linecap="round" stroke-linejoin="round"/>
<path d="M6.66666 4.99999V3.33332C6.66666 2.8913 6.84225 2.46737 7.15481 2.15481C7.46737 1.84225 7.8913 1.66666 8.33332 1.66666H11.6667C12.1087 1.66666 12.5326 1.84225 12.8452 2.15481C13.1577 2.46737 13.3333 2.8913 13.3333 3.33332V4.99999M15.8333 4.99999V16.6667C15.8333 17.1087 15.6577 17.5326 15.3452 17.8452C15.0326 18.1577 14.6087 18.3333 14.1667 18.3333H5.83332C5.3913 18.3333 4.96737 18.1577 4.65481 17.8452C4.34225 17.5326 4.16666 17.1087 4.16666 16.6667V4.99999H15.8333Z" stroke="#B6B6B6" stroke-width="1.2" stroke-linecap="round" stroke-linejoin="round"/>
<path d="M8.33334 9.16666V14.1667" stroke="#B6B6B6" stroke-width="1.2" stroke-linecap="round" stroke-linejoin="round"/>
<path d="M11.6667 9.16666V14.1667" stroke="#B6B6B6" stroke-width="1.2" stroke-linecap="round" stroke-linejoin="round"/>
</svg>
